<?xml version="1.0" standalone="no"?>
<!DOCTYPE svg PUBLIC "-//W3C//DTD SVG 20010904//EN"
 "http://www.w3.org/TR/2001/REC-SVG-20010904/DTD/svg10.dtd">
<svg version="1.0" xmlns="http://www.w3.org/2000/svg"
 width="64.000000pt" height="64.000000pt" viewBox="0 0 64.000000 64.000000"
 preserveAspectRatio="xMidYMid meet">

<g transform="translate(0.000000,64.000000) scale(0.100000,-0.100000)"
fill="#000000" stroke="none">
<path d="M471 528 c-82 -111 -107 -156 -93 -170 7 -7 16 1 27 23 10 19 49 76
86 128 38 51 69 97 69 102 0 25 -26 0 -89 -83z"/>
<path d="M274 535 c-25 -58 -30 -85 -15 -85 8 0 61 112 61 131 0 27 -24 2 -46
-46z"/>
<path d="M153 356 c-24 -29 -46 -68 -49 -87 -4 -19 -14 -42 -22 -52 -9 -10
-12 -21 -6 -26 5 -4 90 -46 189 -92 163 -76 187 -84 251 -87 63 -4 75 -1 93
17 24 24 27 53 9 69 -7 5 -33 16 -58 23 -48 14 -69 33 -70 62 0 9 -7 17 -15
17 -13 0 -19 12 -16 32 0 4 -8 12 -19 18 -11 6 -20 17 -20 25 0 8 -4 15 -9 15
-5 0 -11 9 -14 20 -6 22 -27 28 -27 8 0 -10 -16 -12 -62 -8 -61 5 -62 6 -71
40 -9 35 -24 60 -36 60 -3 -1 -25 -25 -48 -54z m297 -188 c0 -4 -25 -14 -55
-23 -30 -8 -55 -17 -55 -19 0 -2 26 -19 58 -37 44 -26 73 -35 127 -40 l70 -6
-70 -1 c-68 -2 -75 1 -240 78 -93 44 -171 84 -173 90 -8 22 32 22 72 1 l41
-22 85 24 85 25 27 -32 c15 -17 28 -34 28 -38z"/>
</g>
</svg>
